<?xml version="1.0" encoding="utf-8"?><!DOCTYPE svg PUBLIC "-//W3C//DTD SVG 1.1//EN" "http://www.w3.org/Graphics/SVG/1.1/DTD/svg11.dtd"><svg width="518" height="1407" viewBox="0 0 518 1407" xmlns="http://www.w3.org/2000/svg" xmlns:xlink="http://www.w3.org/1999/xlink"><svg height="517" viewBox="-3 -3 518 517" width="517" id="blood" xmlns="http://www.w3.org/2000/svg"><path d="M46.547 378.941c-80.465 49.594-23.606 132.637 87.98 132.637 69.434 0 125.723-34.64 125.723-77.371 0-68.863-134.96-102.75-213.703-55.266zm0 0" fill="#ff4c4c"/><path d="M134.527 483.77c-61.722 0-113.054-27.372-123.699-63.465-14.574 49.394 48.29 91.273 123.7 91.273 76.847 0 137.995-42.789 123.699-91.277-10.645 36.097-61.977 63.469-123.7 63.469zm0 0" fill="#d43f3f"/><path d="M511.418 213.258c-4.953-30.672-41.781-46.426-72.605-49.281-70.157-7.387-146.344 34.937-138.516 83.394 5.797 35.879 57.758 57.324 116.058 47.906 58.301-9.422 100.86-46.144 95.063-82.02zm0 0" fill="#ff4c4c"/><path d="M486.328 179.09c22.05 39.039-23.73 85.332-90.101 96.058-35.774 5.778-69.164-.062-90.961-13.73 15.359 27.184 60.87 41.973 111.09 33.855 85.316-13.785 125.742-81.214 69.972-116.183zm0 0" fill="#d43f3f"/><path d="M200.184 83.754c-20.829-32.805-80.926-31.969-134.235 1.875-53.312 33.84-79.644 87.871-58.816 120.68 18.601 29.304 68.543 31.738 116.992 7.808 54.207-25.586 102.137-89.281 76.059-130.363zm0 0" fill="#ff4c4c"/><path d="M180.734 66.738c19.914 43.578-30.425 102.153-78.937 125.051-36.274 17.918-73.379 21.055-97.547 9.203 20.137 44.086 95.594 35.063 148.203-4.172 58.625-43.425 73.73-107.785 28.281-130.082zm0 0" fill="#d43f3f"/><path d="M195.047 434.207c0-17.039-27.098-30.852-60.52-30.852-33.425 0-60.52 13.813-60.52 30.852 0 17.04 27.095 30.852 60.52 30.852 33.422 0 60.52-13.813 60.52-30.852zm0 0" fill="#a83232"/><path d="M77.453 423.922c-14.27 20.578 16.387 41.137 57.074 41.137 41.473 0 71.063-20.961 57.075-41.137-18.946 27.32-95.157 27.394-114.149 0zm0 0" fill="#8c2a2a"/><path d="M150.121 115.55c-8.305-13.081-35.84-10.484-61.5 5.805-25.664 16.29-39.738 40.098-31.433 53.184 8.304 13.082 35.84 10.484 61.503-5.805 25.664-16.289 39.735-40.101 31.43-53.183zm0 0" fill="#a83232"/><path d="M136.293 107.625c.582 27.102-49.68 63.535-81.48 58.605.066 3.06.835 5.864 2.382 8.297 8.305 13.082 35.84 10.48 61.5-5.808 35.473-22.52 45.746-56.73 17.598-61.094zm0 0" fill="#8c2a2a"/><path d="M456.672 222.113c-2.313-14.308-26.938-22.23-55-17.695-28.063 4.535-48.938 19.809-46.629 34.113 2.312 14.305 26.937 22.23 55 17.696 28.062-4.536 48.937-19.809 46.629-34.114zm0 0" fill="#a83232"/><path d="M438.469 206.078c-.262 22.133-50.367 40.516-83.598 30.094-.215 17.898 29.926 24.125 55.172 20.043 45.562-7.36 63.246-39.219 28.426-50.137zm0 0" fill="#8c2a2a"/><path d="M395.09 299.965a210.242 210.242 0 0 0-3.574-2.492c-35.04.511-65.27-10.278-80.739-28.266-77.39-.367-77.172 87.2 2.215 144.496 51.035 36.84 110.79 41.238 133.457 9.832 22.672-31.41-.324-86.73-51.36-123.57zm0 0" fill="#ff4c4c"/><path d="M312.992 385.379c-31.746-22.918-52.644-52.984-58.445-80-8.23 32.008 14.902 76.894 58.445 108.324 74.047 53.45 155.106 34.04 140.543-33.738-1.414 5.508-82.715 47.152-140.543 5.414zm0 0" fill="#d43f3f"/><path d="M370.406 334.191c-24.562-17.73-51.808-21.957-60.847-9.433-9.04 12.523 3.546 37.054 28.109 54.785 24.566 17.734 51.809 21.957 60.852 9.434 9.039-12.524-3.547-37.051-28.114-54.786zm0 0" fill="#a83232"/><path d="M308.969 325.613c-7.864 12.766 4.703 36.578 28.703 53.899 24.566 17.734 51.808 21.953 60.851 9.43 3.825-5.297 3.778-12.743.59-20.915-14.308 23.235-76.066-6.304-90.144-42.414zm0 0" fill="#8c2a2a"/><path d="M402.605 56.672c-9.625-42.695-67.359-66.05-128.96-52.164-43.063 9.707-76.61 35.05-89.61 64.012 20.86 12.062 31.172 37.488 16.281 71.421 24.2 20.446 65.25 28.864 108.184 19.184 61.598-13.887 103.73-59.754 94.105-102.453zm0 0" fill="#ff4c4c"/><path d="M374.11 17.938c43.378 70.085-80.024 151.816-171.012 114.925a96.377 96.377 0 0 1-2.782 7.078c24.2 20.446 65.25 28.864 108.184 19.184 88.934-20.047 126.707-101.102 65.61-141.188zm0 0" fill="#d43f3f"/><path d="M344.754 69.719c-3.836-17.028-30.984-25.41-60.637-18.727-29.652 6.684-50.578 25.906-46.738 42.93 3.836 17.023 30.984 25.41 60.637 18.723 29.652-6.684 50.578-25.903 46.738-42.926zm0 0" fill="#f36c69"/><path d="M344.754 69.719c-3.836-17.028-30.984-25.41-60.637-18.727-29.652 6.684-50.578 25.906-46.738 42.93 3.836 17.023 30.984 25.41 60.637 18.723 29.652-6.684 50.578-25.903 46.738-42.926zm0 0" fill="#a83232"/><path d="M328.207 52.918c7.102 29.035-53.777 56.477-90.746 41.312 4.098 16.817 31.094 25.055 60.562 18.415 44.883-10.118 63.57-46.032 30.184-59.727zm0 0" fill="#8c2a2a"/></svg><svg viewBox="-3 -3 292.05 292.05" width="292.05" height="292.05" id="checked" y="517" xmlns="http://www.w3.org/2000/svg"><path d="M143.031 0C64.027 0 .004 64.04.004 143.027c0 78.996 64.031 143.027 143.027 143.027 78.987 0 143.018-64.031 143.018-143.027C286.049 64.049 222.018 0 143.031 0zm0 259.236c-64.183 0-116.209-52.026-116.209-116.209S78.857 26.818 143.031 26.818s116.2 52.026 116.2 116.209-52.025 116.209-116.2 116.209zm56.21-177.049c-6.079-3.629-13.847-1.475-17.342 4.827l-47.959 86.147-26.71-32.512c-4.836-5.569-11.263-8.456-17.333-4.827-6.079 3.638-8.591 12.39-4.657 18.004l37.169 45.241c2.78 3.611 5.953 5.775 9.27 6.392l.027.054.34.018c.751.116 11.979 2.19 16.815-6.463l55.048-98.876c3.493-6.313 1.411-14.367-4.668-18.005z" fill="#3db39e"/></svg><svg width="42" height="51" viewBox="-3 -3 42 51" id="loadMore" y="810" xmlns="http://www.w3.org/2000/svg"><g fill="#FFDE00"><path d="M28.266 7.925L26.05 10.28c4.73 3.051 7.479 8.64 6.545 14.483-.616 3.851-2.72 7.235-5.923 9.53a14.891 14.891 0 0 1-9.549 2.775l.586-.604c-.011-.001-.024.001-.035.001l2.218-2.289-2.048-1.923-4.398 4.542-.001-.002-1.898 1.96 2.047 1.921.001-.001L18.209 45l1.899-1.96-2.989-2.801c4.091.19 8.093-.979 11.449-3.383 3.9-2.793 6.461-6.913 7.211-11.601 1.106-6.924-2.033-13.557-7.513-17.33zM3.406 20.238c.616-3.851 2.72-7.235 5.923-9.53a14.891 14.891 0 0 1 9.549-2.775l-.585.604c.011.001.024-.001.035-.001l-2.218 2.289 2.048 1.923 4.398-4.542.001.002 1.898-1.96-2.047-1.921-.001.001L17.791 0l-1.899 1.96 2.989 2.801A18.127 18.127 0 0 0 7.432 8.144C3.532 10.937.971 15.057.221 19.745c-1.107 6.924 2.033 13.557 7.512 17.33l2.216-2.355c-4.728-3.051-7.477-8.64-6.543-14.482z"/></g></svg><svg viewBox="-3 -3 518 518" width="518" height="518" id="packing" y="861" xmlns="http://www.w3.org/2000/svg"><path fill="#f0dcbe" d="M255.999 27.194L39.674 127.036l216.325 99.842 216.326-99.842z"/><path d="M467.491 387.194L256 484.805V226.878l216.326-99.842v252.603a8.325 8.325 0 0 1-4.835 7.555z" fill="#ebd2af"/><path d="M44.507 387.194l211.492 97.611V226.878L39.674 127.036v252.602a8.323 8.323 0 0 0 4.833 7.556z" fill="#d2b493"/><path d="M472.325 127.036l-216.326 99.842 38.661 115.985c1.568 4.704 6.878 7.001 11.38 4.924l201.123-92.826a8.32 8.32 0 0 0 4.406-10.186l-39.244-117.739z" fill="#f0dcbe"/><path d="M39.674 127.036L256 226.878l-38.662 115.985c-1.568 4.704-6.878 7.001-11.38 4.924L4.835 254.96a8.32 8.32 0 0 1-4.406-10.186l39.245-117.738z" fill="#ebd2af"/><path fill="#d2b493" d="M472.325 127.036L255.999 27.194v199.684z"/></svg><svg width="27.57" height="27.57" viewBox="-3 -3 27.57 27.57" id="user" y="1379" xmlns="http://www.w3.org/2000/svg"><path fill="#E7EDED" d="M7.901 16.912l-3.218 1.755c-.189.103-.359.23-.517.368a10.735 10.735 0 0 0 6.945 2.537c2.627 0 5.034-.94 6.905-2.501a2.852 2.852 0 0 0-.567-.38l-3.446-1.723a1.316 1.316 0 0 1-.727-1.175V14.44c.097-.11.208-.252.326-.419a7.903 7.903 0 0 0 1.071-2.159c.442-.136.768-.545.768-1.03V9.389c0-.317-.141-.601-.361-.8V6.503s.429-3.247-3.968-3.247-3.969 3.247-3.969 3.247V8.59c-.22.199-.361.482-.361.8v1.443c0 .38.2.715.499.908a7.169 7.169 0 0 0 1.305 2.7v1.319c0 .479-.263.922-.685 1.152z"/><path fill="#556180" d="M10.97.002C5.014-.1.103 4.646.002 10.601a10.75 10.75 0 0 0 3.844 8.43c.157-.137.325-.262.512-.364l3.218-1.755c.422-.23.685-.673.685-1.154V14.44s-.945-1.13-1.305-2.7a1.08 1.08 0 0 1-.499-.908V9.389c0-.317.141-.601.361-.8V6.503s-.429-3.247 3.968-3.247 3.968 3.247 3.968 3.247v2.086c.22.199.361.482.361.8v1.443c0 .485-.326.893-.768 1.03a7.945 7.945 0 0 1-1.071 2.159 5.067 5.067 0 0 1-.326.419v1.352c0 .498.281.953.727 1.175l3.446 1.723c.207.103.394.234.566.379a10.755 10.755 0 0 0 3.881-8.1C21.672 5.014 16.927.103 10.97.002z"/></svg></svg>